<svg width="68" height="68" viewBox="0 0 68 68" fill="none" xmlns="http://www.w3.org/2000/svg">
<path d="M34 0.02771C43.406 0.02771 51.8714 3.84545 58.013 9.98703C64.1546 16.1286 67.9723 24.6494 67.9723 34C67.9723 43.4061 64.1546 51.8715 58.013 58.0131C51.8714 64.1546 43.3507 67.9724 34 67.9724C24.6493 67.9724 16.1285 64.1546 9.98697 58.0131C3.84539 51.9268 0.0276489 43.4061 0.0276489 34C0.0276489 24.594 3.84539 16.1286 9.98697 9.98703C16.1285 3.84545 24.6493 0.02771 34 0.02771ZM22.8787 30.0716C22.2701 30.0716 21.7722 30.2376 21.4955 30.459C21.3295 30.5696 21.1635 30.7356 21.1082 30.9016C20.9975 31.1229 20.9422 31.3442 20.9975 31.6762C20.9975 32.5061 21.4402 33.6127 22.3255 34.8853L25.0919 39.3117C26.1985 41.0822 27.3604 42.9081 28.8543 44.236C30.2376 45.5086 31.9528 46.3939 34.166 46.3939C36.6005 46.3939 38.371 45.5086 39.8096 44.1254C41.3035 42.7421 42.5207 40.8056 43.6827 38.869L46.8364 33.7234C47.4451 32.3955 47.6111 31.5102 47.5004 30.9569C47.4451 30.6249 47.0578 30.5143 46.5045 30.459C46.3938 30.459 46.2278 30.459 46.1172 30.459C45.9512 30.459 45.8405 30.459 45.6745 30.459C45.5639 30.459 45.5085 30.459 45.4532 30.459C45.1766 30.459 44.8999 30.459 44.5679 30.4036L45.6192 25.6453C37.6517 26.9179 31.6761 20.9976 23.2661 24.4834L23.8193 30.127C23.4874 30.127 23.1554 30.127 22.8787 30.0716ZM10.4296 52.9781C14.358 51.5948 21.2742 50.8756 24.4833 48.7177C25.0366 47.9984 25.6452 47.1131 26.1985 46.3385C26.5305 45.8406 26.8071 45.3979 27.0838 45.066C27.1391 45.0106 27.1945 44.9553 27.2498 44.9C25.9219 43.5167 24.8153 41.8568 23.764 40.197L20.9975 35.7706C19.9463 34.2214 19.393 32.8381 19.393 31.7315C19.393 31.1782 19.4483 30.6803 19.6696 30.293C19.891 29.8503 20.2229 29.463 20.6102 29.1864C20.8316 29.0757 21.0529 28.9097 21.2742 28.8544C21.1082 26.4752 21.0529 23.4321 21.1635 20.8869C21.2189 20.2783 21.3295 19.6697 21.4955 19.0611C22.2148 16.5159 23.9853 14.4687 26.1985 13.0855C26.9731 12.5875 27.8031 12.2002 28.7437 11.8682C30.3482 11.2596 29.5736 8.82511 31.3442 8.76978C35.4939 8.65912 42.2994 12.2002 44.9552 15.0773C46.5045 16.7372 47.5004 18.9504 47.6664 21.8829L47.5004 29.131C48.275 29.3524 48.773 29.8503 48.9943 30.6249C49.2156 31.5102 48.9943 32.7275 48.2197 34.4427C48.2197 34.498 48.1643 34.498 48.1643 34.5533L45.0106 39.7543C43.7933 41.7462 42.5207 43.7934 40.8608 45.3426L40.8055 45.3979C41.0268 45.6746 41.2482 46.0066 41.4695 46.3385C41.9121 46.9472 42.3547 47.6664 42.8527 48.3304C45.7852 50.8202 53.5313 51.5948 57.6257 53.0887C61.8307 47.8878 64.3206 41.2482 64.3206 34.0554C64.3206 25.7006 60.9455 18.1205 55.4678 12.6428C49.9902 7.16522 42.4101 3.79012 34.0553 3.79012C25.7006 3.79012 18.1204 7.16522 12.6428 12.6428C7.16516 18.1205 3.79006 25.7006 3.79006 34.0554C3.73473 41.1929 6.22456 47.7771 10.4296 52.9781ZM42.6314 50.1009C41.8568 49.2157 41.0822 48.0537 40.3629 47.0578C40.1416 46.7812 39.9756 46.4492 39.7543 46.2279C38.2604 47.3345 36.4345 48.0537 34.0553 48.0537C31.5655 48.0537 29.629 47.1685 28.0244 45.7852C28.0244 45.7852 28.0244 45.8406 27.9691 45.8406C27.6924 46.2279 27.4158 46.6152 27.0838 47.1131C26.4752 47.9984 25.8112 48.939 25.2026 49.769C25.2579 55.3573 39.367 58.677 42.6314 50.1009Z" fill="#7C7C7C"/>
</svg>
